<?xml version="1.0" encoding="UTF-8"?>
<svg width="271px" height="38px" viewBox="0 0 271 38" version="1.1" xmlns="http://www.w3.org/2000/svg" xmlns:xlink="http://www.w3.org/1999/xlink">
    <!-- Generator: Sketch 50.2 (55047) - http://www.bohemiancoding.com/sketch -->
    <title>logo</title>
    <desc>Created with Sketch.</desc>
    <defs/>
    <g id="Page-1" stroke="none" stroke-width="1" fill="none" fill-rule="evenodd">
        <g id="logo" fill-rule="nonzero">
            <g>
                <path d="M6.67176484,37.7670593 L4.41952652,36.2492241 C4.04404601,35.9961793 3.81900128,35.5734347 3.81900128,35.1211431 L3.81900128,21.5848541 L1.36319689,21.5848541 C0.610324036,21.5848541 0,20.9755038 0,20.2238323 C0,19.8567238 0.14853768,19.5051832 0.411899647,19.2489992 L18.3248768,1.11678997 C18.5834843,0.865230862 19.2642327,0.00579866671 19.9546986,3.16646509e-05 C20.6777401,-0.00600741947 21.4114377,0.853488168 21.6821973,1.1169656 L39.5882802,19.2491749 C40.1274288,19.7738231 40.1385041,20.6355034 39.6130175,21.1737919 C39.3564364,21.4366237 39.0044101,21.5848541 38.6368025,21.5848541 L36.1801099,21.5848541 L36.1801099,25.2715614 C36.1801099,25.5730891 36.1801099,27.1364027 36.1801099,29.9615022 C35.5560922,30.3820422 31.8560027,28.1738733 31.4347908,27.5508513 C31.2827269,27.325931 31.2014778,27.0607613 31.2014778,26.7893966 L30.5779358,19.4505155 C30.5114478,18.6679742 30.1407457,17.9427086 29.5454344,17.4304627 L20.5156645,9.66064166 C19.9920437,9.16913001 19.1761632,9.16792395 18.6510869,9.6578854 L10.5334508,16.5362586 C9.89089506,17.0807198 9.50679373,17.8702018 9.47499435,18.7118103 L8.79763339,36.6389782 C8.79763339,37.3906498 8.18730935,38 7.4344365,38 C7.16263808,38 6.89704459,37.9188805 6.67176484,37.7670593 Z" id="Path-6" fill="#0291DD"/>
                <circle id="Oval-7" fill="#2C357D" cx="20.5" cy="25.5" r="4.5"/>
                <path d="M54,27.6396149 L54,7.36038514 C54,6.45345718 54.4416148,6 55.3248578,6 L57.0597906,6 C57.8063412,6 58.347845,6.3005472 58.6843186,6.90165062 L66.8227306,19.2874828 C67.0750857,19.6882184 67.3616096,20.186494 67.6823108,20.7823247 C68.0030122,21.3781552 68.2579922,21.8711581 68.4472585,22.261348 L68.7311566,22.8466299 L68.7942451,22.8466299 C68.647038,21.3807813 68.5734354,20.1944108 68.5734354,19.2874828 L68.5734354,7.36038514 C68.5734354,6.92801251 68.6917251,6.59319238 68.9283081,6.35591472 C69.164891,6.11863706 69.4987308,6 69.9298374,6 L71.3808721,6 C71.8119788,6 72.1458186,6.11863706 72.3824015,6.35591472 C72.6189845,6.59319238 72.7372741,6.92801251 72.7372741,7.36038514 L72.7372741,27.6396149 C72.7372741,28.5465429 72.2851447,29 71.3808721,29 L69.6301671,29 C68.915161,29 68.3894291,28.6994528 68.0529555,28.0983493 L59.8829994,15.7441541 C59.6306442,15.3434184 59.346749,14.8451428 59.031305,14.2493122 C58.7158612,13.6534817 58.4582525,13.1604788 58.2584714,12.7702889 L57.9745733,12.1850069 L57.9114848,12.1850069 C58.0586919,13.6508556 58.1322945,14.837226 58.1322945,15.7441541 L58.1322945,27.6396149 C58.1322945,28.5465429 57.6906796,29 56.8074367,29 L55.3248578,29 C54.4416148,29 54,28.5465429 54,27.6396149 Z M74.5834036,20.5963515 C74.5834036,18.1188255 75.3723879,16.0994674 76.95038,14.5382165 C78.528372,12.9769657 80.574382,12.1963519 83.0884709,12.1963519 C85.4099915,12.1963519 87.2286669,12.9053028 88.5445519,14.3232257 C89.8604369,15.7411486 90.5183694,17.5813495 90.5183694,19.8438836 C90.5183694,20.2022034 90.3766197,20.5170083 90.093116,20.7883077 C89.8096124,21.059607 89.469948,21.1952547 89.0741127,21.1952547 L78.8519845,21.1952547 C78.9803636,22.5875833 79.5179427,23.6676456 80.4647379,24.4354738 C81.4115332,25.2033021 82.5482054,25.5872104 83.8747885,25.5872104 C85.1478804,25.5872104 86.3514157,25.2442523 87.4854303,24.5583257 C87.7849813,24.4149978 88.0577827,24.3433349 88.3038425,24.3433349 C88.7317726,24.3433349 89.0741115,24.5583236 89.3308695,24.9883074 L89.7320518,25.6179235 C89.8818274,25.8943417 89.9567141,26.1502807 89.956714,26.3857479 C89.9567141,26.7850187 89.7267051,27.1177393 89.2666803,27.3839197 C87.4907705,28.4588794 85.5972084,28.9963512 83.5859372,28.9963512 C81.7886309,28.9963512 80.19729,28.6124427 78.8118664,27.8446144 C77.4264429,27.0767862 76.3753554,26.0581492 75.6585725,24.788673 C74.9417897,23.5191969 74.5834036,22.1217704 74.5834036,20.5963515 Z M78.9482683,19.0847639 L86.3781668,19.0847639 C86.3460721,17.9366896 86.0171058,17.0300462 85.3912581,16.3648069 C84.7654103,15.6995675 83.9657281,15.3669528 82.9921871,15.3669528 C81.9330603,15.3669528 81.0451188,15.7022499 80.3283359,16.3728541 C79.611553,17.0434583 79.1515352,17.9474192 78.9482683,19.0847639 Z M91.636402,33.8589618 L91.636402,13.9225183 C91.636402,13.4974542 91.7567554,13.1682936 91.9974662,12.9350267 C92.2381768,12.7017598 92.5778412,12.5851281 93.0164695,12.5851281 L94.0755911,12.5851281 C94.5035212,12.5851281 94.8351619,12.6862089 95.0705235,12.8883736 C95.3058851,13.0905382 95.4235641,13.3574952 95.4235641,13.6892525 L95.4235641,14.4201518 L95.3754221,15.0577447 L95.4556586,15.0577447 C95.4984517,14.9851729 95.5599657,14.8840921 95.6402025,14.7544993 C95.7204395,14.6249066 95.9156796,14.394235 96.2259289,14.0624777 C96.5361781,13.7307203 96.8758425,13.440437 97.2449322,13.191619 C97.6140219,12.942801 98.1221813,12.7147212 98.7694255,12.5073729 C99.4166697,12.3000245 100.104022,12.1963519 100.831503,12.1963519 C103.088834,12.1963519 104.896812,12.9790802 106.255489,14.5445602 C107.614167,16.1100402 108.293496,18.1627579 108.293496,20.7027752 C108.293496,23.2531598 107.571375,25.3084694 106.127111,26.8687658 C104.682847,28.429062 102.842775,29.2091985 100.606841,29.2091985 C99.9542476,29.2091985 99.3444564,29.1236686 98.777449,28.9526062 C98.2104418,28.7815438 97.7504238,28.5741985 97.3973815,28.3305643 C97.0443393,28.0869299 96.7394436,27.8432993 96.4826856,27.5996649 C96.2259277,27.3560307 96.0440601,27.1512772 95.9370776,26.9853986 L95.7766046,26.7210308 L95.7124154,26.7210308 C95.7766049,27.1046252 95.8086992,27.571152 95.8086992,28.120625 L95.8086992,33.8589618 C95.8086992,34.7505597 95.3486813,35.1963519 94.4286316,35.1963519 L93.0164695,35.1963519 C92.0964198,35.1963519 91.636402,34.7505597 91.636402,33.8589618 Z M95.6803208,21.0965665 C95.6803208,22.4914233 96.0520795,23.7011751 96.7956079,24.7258583 C97.5391364,25.7505416 98.5581296,26.2628756 99.852618,26.2628756 C101.050822,26.2628756 102.051094,25.7988244 102.853462,24.8707082 C103.655831,23.9425919 104.05701,22.6738278 104.05701,21.0643777 C104.05701,19.4763869 103.674553,18.1995756 102.909628,17.2339056 C102.144703,16.2682355 101.147106,15.7854077 99.9168072,15.7854077 C98.7293013,15.7854077 97.7263552,16.2333646 96.907939,17.1292918 C96.0895227,18.025219 95.6803208,19.3476307 95.6803208,21.0965665 Z M108.256123,24.31701 C108.256123,23.664356 108.373802,23.0660986 108.609164,22.5222202 C108.844525,21.9783418 109.15477,21.519937 109.539907,21.1469917 C109.925044,20.7740465 110.390411,20.4425446 110.936022,20.1524761 C111.481633,19.8624078 112.040608,19.6345002 112.612964,19.4687467 C113.185321,19.3029933 113.80581,19.1657308 114.474451,19.0569552 C115.143092,18.9481795 115.758232,18.8756635 116.31989,18.839405 C116.881548,18.8031464 117.456571,18.7850173 118.044974,18.7850173 L118.735008,18.7850173 L118.735008,18.3965347 C118.735008,17.4020141 118.448834,16.6768539 117.876478,16.221032 C117.304121,15.7652101 116.55258,15.5373026 115.621833,15.5373026 C114.445025,15.5373026 113.284282,15.8429058 112.139569,16.4541216 C111.850716,16.5784366 111.588613,16.6405933 111.353252,16.6405933 C110.893227,16.6405933 110.54019,16.4023262 110.29413,15.9257851 L109.973184,15.3197523 C109.823409,15.0400433 109.748522,14.7862373 109.748522,14.5583263 C109.748522,14.1439428 109.994578,13.8020815 110.486698,13.5327322 C112.273306,12.6418076 114.102679,12.1963519 115.974873,12.1963519 C118.146618,12.1963519 119.847615,12.7635309 121.077914,13.8979059 C122.308212,15.0322808 122.923353,16.619864 122.923353,18.6607028 L122.923353,27.471489 C122.923353,28.3624137 122.463335,28.8078692 121.543285,28.8078692 L120.419974,28.8078692 C119.521321,28.8078692 119.072001,28.3624137 119.072001,27.471489 L119.072001,26.8343775 L119.136191,26.1351087 L119.072001,26.1351087 C119.029208,26.2179854 118.96502,26.3293493 118.879434,26.4692038 C118.793848,26.6090582 118.593259,26.8550948 118.27766,27.2073209 C117.962062,27.5595468 117.619723,27.8677399 117.250633,28.1319095 C116.881544,28.3960789 116.386757,28.6395256 115.766258,28.8622568 C115.14576,29.0849879 114.493176,29.1963519 113.808488,29.1963519 C112.246543,29.1963519 110.930678,28.7431267 109.860853,27.8366626 C108.791028,26.9301987 108.256123,25.7569929 108.256123,24.31701 Z M112.396326,24.3959228 C112.396326,24.9967841 112.620986,25.5144828 113.070312,25.9490343 C113.519639,26.3835859 114.140128,26.6008584 114.931799,26.6008584 C116.033719,26.6008584 116.95108,26.1368073 117.68391,25.208691 C118.416741,24.2805748 118.78315,23.2693187 118.78315,22.1748926 L118.78315,21.5633048 L118.093116,21.5633048 C117.451221,21.5633048 116.849454,21.5954932 116.287795,21.6598712 C115.726137,21.7242493 115.127044,21.8476385 114.490498,22.0300429 C113.853952,22.2124473 113.345793,22.5048264 112.966005,22.9071889 C112.586217,23.3095514 112.396326,23.805791 112.396326,24.3959228 Z M124.859797,28 L124.859797,7.38412017 C124.859797,6.46136878 125.309117,6 126.20777,6 L127.652027,6 C128.55068,6 129,6.46136878 129,7.38412017 L129,28 C129,28.5522847 128.552285,29 128,29 L125.859797,29 C125.307513,29 124.859797,28.5522847 124.859797,28 Z" id="Nepal" fill="#2C357D"/>
                <path d="M130.669637,27.6396149 L130.669637,7.36038514 C130.669637,6.45345718 131.129498,6 132.049234,6 L133.59307,6 C134.512806,6 134.972668,6.45345718 134.972668,7.36038514 L134.972668,15.7441541 L145.910905,15.7441541 L145.910905,7.36038514 C145.910905,6.45345718 146.381715,6 147.323351,6 L148.834339,6 C149.754075,6 150.213937,6.45345718 150.213937,7.36038514 L150.213937,27.6396149 C150.213937,28.5465429 149.754075,29 148.834339,29 L147.323351,29 C146.381715,29 145.910905,28.5465429 145.910905,27.6396149 L145.910905,19.3507565 L134.972668,19.3507565 L134.972668,27.6396149 C134.972668,28.5465429 134.512806,29 133.59307,29 L132.049234,29 C131.129498,29 130.669637,28.5465429 130.669637,27.6396149 Z M151.726365,20.4935767 C151.726365,18.8762596 152.140779,17.4144757 152.969619,16.1081812 C153.79846,14.8018866 154.920608,13.7884868 156.336095,13.0679513 C157.751583,12.3474158 159.304291,11.9871535 160.994264,11.9871535 C162.684238,11.9871535 164.236945,12.3474158 165.652433,13.0679513 C167.067921,13.7884868 168.192759,14.8018866 169.026981,16.1081812 C169.861204,17.4144757 170.278308,18.8762596 170.278308,20.4935767 C170.278308,22.1212611 169.861204,23.5882287 169.026981,24.8945233 C168.192759,26.2008179 167.070612,27.2116258 165.660506,27.9269776 C164.2504,28.6423294 162.695001,29 160.994264,29 C159.293526,29 157.740818,28.6423294 156.336095,27.9269776 C154.931373,27.2116258 153.811916,26.2008179 152.977693,24.8945233 C152.14347,23.5882287 151.726365,22.1212611 151.726365,20.4935767 Z M156.005098,20.4935767 C156.005098,21.9761174 156.486787,23.1890869 157.450181,24.1325219 C158.413574,25.0759569 159.594922,25.5476672 160.994264,25.5476672 C162.393605,25.5476672 163.580337,25.0759569 164.554494,24.1325219 C165.52865,23.1890869 166.015721,21.9761174 166.015721,20.4935767 C166.015721,19.0214035 165.52865,17.8084339 164.554494,16.8546315 C163.580337,15.9008291 162.393605,15.4239351 160.994264,15.4239351 C159.594922,15.4239351 158.413574,15.9008291 157.450181,16.8546315 C156.486787,17.8084339 156.005098,19.0214035 156.005098,20.4935767 Z M171.435522,27.6866817 L171.435522,14.1261678 C171.435522,13.23457 171.88761,12.7887777 172.7918,12.7887777 L174.083493,12.7887777 C174.987682,12.7887777 175.439771,13.23457 175.439771,14.1261678 L175.439771,15.1058839 L175.375186,15.8367831 C175.913395,14.9348178 176.645346,14.1365387 177.635649,13.4419217 C178.625953,12.7473048 179.734645,12.4000015 180.961759,12.4000015 C183.534394,12.4000015 185.175905,13.5144821 185.886339,15.7434768 C186.424548,14.8311442 187.186101,14.0458241 188.235606,13.3874931 C189.285113,12.7291621 190.439552,12.4000015 191.698959,12.4000015 C195.380304,12.4000015 197.220948,14.457903 197.220948,18.5737676 L197.220948,27.6866817 C197.220948,28.5782796 196.758096,29.0240718 195.832377,29.0240718 L194.411515,29.0240718 C193.485797,29.0240718 193.022945,28.5782796 193.022945,27.6866817 L193.022945,19.335769 C193.022945,18.8277654 192.993344,18.3949323 192.934141,18.0372564 C192.874938,17.6795805 192.764606,17.3452363 192.603144,17.0342139 C192.441682,16.7231913 192.204874,16.4899279 191.892713,16.3344167 C191.580553,16.1789054 191.187666,16.101151 190.714042,16.101151 C189.809853,16.101151 189.024081,16.3784751 188.356703,16.933132 C187.689325,17.4877888 187.199562,18.1823954 186.887402,19.0169725 C186.575241,19.8515496 186.419163,20.7560931 186.419163,21.7306302 L186.419163,27.6866817 C186.419163,28.5782796 185.967075,29.0240718 185.062885,29.0240718 L183.60973,29.0240718 C182.684012,29.0240718 182.22116,28.5782796 182.22116,27.6866817 L182.22116,19.335769 C182.22116,18.9418071 182.207705,18.6022792 182.180795,18.3171752 C182.153885,18.0320713 182.091991,17.741788 181.995113,17.4463166 C181.898237,17.1508453 181.77176,16.9098064 181.615679,16.7231929 C181.459599,16.5365793 181.241628,16.386254 180.961759,16.2722125 C180.68189,16.1581709 180.348206,16.101151 179.960697,16.101151 C179.250262,16.101151 178.609804,16.2670271 178.039304,16.5987845 C177.468803,16.9305418 177.011332,17.3685586 176.666879,17.912848 C176.322427,18.4571374 176.058708,19.0558468 175.875717,19.7089941 C175.692726,20.3621413 175.601232,21.0360133 175.601232,21.7306302 L175.601232,27.6866817 C175.601232,28.5782796 175.149145,29.0240718 174.244954,29.0240718 L172.7918,29.0240718 C171.88761,29.0240718 171.435522,28.5782796 171.435522,27.6866817 Z M198.200553,20.4935767 C198.200553,17.9846617 198.994398,15.9397194 200.582113,14.3586882 C202.169826,12.7776572 204.228442,11.9871535 206.75802,11.9871535 C209.093843,11.9871535 210.923724,12.7050863 212.247716,14.1409736 C213.571709,15.5768609 214.233695,17.4403761 214.233695,19.7315754 C214.233695,20.0944349 214.091072,20.4132283 213.805822,20.6879648 C213.520572,20.9627014 213.178814,21.1000676 212.78054,21.1000676 L202.495432,21.1000676 C202.624603,22.5100364 203.165494,23.6037824 204.118123,24.3813387 C205.070752,25.1588949 206.214426,25.5476672 207.549182,25.5476672 C208.830117,25.5476672 210.041068,25.200364 211.18207,24.5057471 C211.483466,24.3606033 211.757949,24.2880324 212.005524,24.2880324 C212.436091,24.2880324 212.780538,24.5057449 213.038878,24.9411764 L213.442533,25.5787694 C213.593232,25.8586896 213.668578,26.1178713 213.668578,26.3563217 C213.668578,26.7606511 213.437152,27.0975871 212.974294,27.3671399 C211.187443,28.4557187 209.282214,29 207.258552,29 C205.450172,29 203.849026,28.6112276 202.455068,27.8336713 C201.061108,27.0561151 200.003544,26.0245725 199.282346,24.7390127 C198.561147,23.4534531 198.200553,22.0383218 198.200553,20.4935767 Z M202.59231,18.6430019 L210.067984,18.6430019 C210.035692,17.5336884 209.704699,16.6576547 209.074995,16.0148749 C208.445292,15.3720951 207.640682,15.0507099 206.661143,15.0507099 C205.595492,15.0507099 204.70208,15.3746869 203.980879,16.0226504 C203.259681,16.670614 202.796829,17.5440558 202.59231,18.6430019 Z M214.309115,26.5273833 C214.29835,26.4755462 214.29835,26.4237099 214.309115,26.3718728 C214.309115,26.0919525 214.416755,25.8068528 214.632038,25.5165653 L215.035693,24.9411764 C215.283268,24.609419 215.55775,24.4228084 215.859147,24.3813387 C215.912968,24.3709713 215.966788,24.3657876 216.020608,24.3657876 C216.278948,24.3657876 216.574958,24.4539093 216.908648,24.6301555 C217.317685,24.8478712 217.645988,25.0163393 217.893563,25.1355645 C218.141139,25.2547898 218.536716,25.3869725 219.080307,25.5321162 C219.623897,25.67726 220.159406,25.7498309 220.68685,25.7498309 C221.408049,25.7498309 221.978542,25.6020974 222.398344,25.306626 C222.818146,25.0111547 223.028044,24.6042396 223.028044,24.0858688 C223.028044,23.7333766 222.874657,23.4223588 222.567879,23.152806 C222.261099,22.883253 221.860141,22.6525814 221.364989,22.4607843 C220.869838,22.268987 220.326256,22.0771927 219.734226,21.8853955 C219.142197,21.6935983 218.550177,21.4629267 217.958148,21.1933738 C217.366119,20.923821 216.822538,20.6128032 216.327386,20.2603109 C215.832234,19.9078188 215.431275,19.441292 215.124496,18.8607167 C214.817718,18.2801414 214.66433,17.611453 214.66433,16.8546315 C214.66433,15.3202537 215.275187,14.1254268 216.496921,13.2701149 C217.718653,12.414803 219.255214,11.9871535 221.106651,11.9871535 C222.78586,11.9871535 224.352022,12.3811094 225.805184,13.1690331 C226.278808,13.4178511 226.515616,13.7496035 226.515616,14.1643001 C226.515616,14.3923833 226.445649,14.651565 226.305715,14.9418526 L225.966645,15.5172414 C225.71907,15.9837752 225.36924,16.2170384 224.917146,16.2170384 C224.680334,16.2170384 224.416616,16.1548349 224.125983,16.0304259 C222.888104,15.5016877 221.817086,15.2373225 220.912897,15.2373225 C220.180933,15.2373225 219.618514,15.3746887 219.225622,15.6494253 C218.832731,15.9241619 218.636287,16.315526 218.636287,16.8235294 C218.636287,17.1760215 218.789674,17.4896312 219.096452,17.7643678 C219.403232,18.0391044 219.80419,18.2697758 220.299342,18.4563894 C220.794494,18.643003 221.338075,18.8296136 221.930105,19.0162271 C222.522134,19.2028407 223.114154,19.4283286 223.706182,19.6926978 C224.298212,19.9570668 224.841794,20.2629011 225.336945,20.6102095 C225.832097,20.9575181 226.233057,21.421453 226.539835,22.0020283 C226.846613,22.5826037 227,23.2461084 227,23.9925624 C227,25.4440009 226.413363,26.6414195 225.240069,27.5848546 C224.066775,28.5282896 222.516758,29 220.589973,29 C218.523253,29 216.644936,28.4453515 214.954962,27.3360378 C214.567452,27.1286894 214.352171,26.8591407 214.309115,26.5273833 Z" id="Homes" fill="#0291DD"/>
                <path d="M231,28.3364674 L231,27.7253189 C231,27.4401149 231.130691,27.297515 231.392078,27.297515 L231.936187,27.297515 C232.197574,27.297515 232.328265,27.4401149 232.328265,27.7253189 L232.328265,28.3364674 C232.328265,28.6333124 232.197574,28.7817327 231.936187,28.7817327 L231.392078,28.7817327 C231.130691,28.7817327 231,28.6333124 231,28.3364674 Z M234.288658,22.4170584 C234.288658,21.5148824 234.432685,20.6680139 234.720744,19.8764271 C235.008803,19.0848404 235.403544,18.4053084 235.904981,17.8378106 C236.406417,17.2703129 237.018534,16.8221418 237.741348,16.4932841 C238.464163,16.1644264 239.241644,16 240.073815,16 C240.553913,16 241.014001,16.0465632 241.45409,16.1396911 C241.894182,16.2328189 242.275587,16.3565025 242.59832,16.5107454 C242.921052,16.6649885 243.185103,16.8061332 243.390478,16.934184 C243.595853,17.0622349 243.781222,17.1961041 243.94659,17.3357959 C244.047944,17.4231032 244.09862,17.5278704 244.09862,17.6501008 C244.09862,17.7432286 244.069281,17.8479959 244.010603,17.9644057 L243.858571,18.2001343 C243.778555,18.3165441 243.685205,18.3747481 243.578515,18.3747481 C243.493165,18.3747481 243.40248,18.3398257 243.306462,18.2699798 C242.346264,17.5307776 241.279395,17.161182 240.105822,17.161182 C239.193635,17.161182 238.382813,17.3925431 237.673335,17.855272 C236.963856,18.3180009 236.419752,18.9451493 236.041008,19.7367361 C235.662264,20.5283228 235.472894,21.4159341 235.472894,22.3995971 C235.472894,23.3949009 235.662264,24.3028838 236.041008,25.1235729 C236.419752,25.944262 236.970524,26.6005125 237.693339,27.0923438 C238.416154,27.5841752 239.238977,27.8300872 240.161832,27.8300872 C241.426091,27.8300872 242.567641,27.3790061 243.586518,26.4768301 C243.687872,26.3895228 243.781223,26.3458697 243.866574,26.3458697 C243.967928,26.3458697 244.058612,26.4069839 244.138628,26.5292141 L244.290659,26.7212894 C244.365341,26.8260583 244.402681,26.9279152 244.402681,27.0268636 C244.402681,27.1374529 244.354671,27.2451303 244.258652,27.3498992 C243.058406,28.4499718 241.682144,29 240.129826,29 C239.270983,29 238.474831,28.8282981 237.741348,28.4848891 C237.007864,28.1414802 236.390413,27.6743929 235.888978,27.0836132 C235.387542,26.4928334 234.995467,25.794385 234.712743,24.9882472 C234.430018,24.1821092 234.288658,23.3250549 234.288658,22.4170584 Z M245.906981,22.4170584 C245.906981,21.5265234 246.056343,20.6854752 246.35507,19.8938884 C246.6538,19.1023018 247.061877,18.4213147 247.579316,17.8509066 C248.096755,17.2804986 248.71954,16.8294173 249.44769,16.4976495 C250.175839,16.1658815 250.95332,16 251.780157,16 C252.884383,16 253.885907,16.2822895 254.784757,16.8468771 C255.683608,17.4114646 256.385075,18.1826681 256.889179,19.1605105 C257.393281,20.1383527 257.64533,21.223858 257.64533,22.4170584 C257.64533,23.6335409 257.393281,24.7437827 256.889179,25.7478173 C256.385075,26.7518519 255.683608,27.5448817 254.784757,28.1269308 C253.885907,28.7089798 252.884383,29 251.780157,29 C250.95332,29 250.175839,28.8282981 249.44769,28.4848891 C248.71954,28.1414802 248.096755,27.6773031 247.579316,27.0923438 C247.061877,26.5073845 246.6538,25.8089361 246.35507,24.9969778 C246.056343,24.1850194 245.906981,23.3250549 245.906981,22.4170584 Z M247.091218,22.4170584 C247.091218,23.4240033 247.293924,24.3407167 247.699339,25.1672264 C248.104757,25.9937359 248.666197,26.6441659 249.383677,27.118536 C250.101157,27.5929058 250.899975,27.8300872 251.780157,27.8300872 C252.665671,27.8300872 253.467157,27.5929058 254.184637,27.118536 C254.902117,26.6441659 255.460891,25.9937359 255.860973,25.1672264 C256.261054,24.3407167 256.461092,23.4240033 256.461092,22.4170584 C256.461092,21.4333956 256.261054,20.5414187 255.860973,19.7411014 C255.460891,18.940784 254.902117,18.3107254 254.184637,17.8509066 C253.467157,17.3910879 252.665671,17.161182 251.780157,17.161182 C250.899975,17.161182 250.101157,17.3896329 249.383677,17.8465413 C248.666197,18.3034498 248.104757,18.9335084 247.699339,19.7367361 C247.293924,20.5399637 247.091218,21.4333956 247.091218,22.4170584 Z M259.677736,28.319006 L260.541908,16.6198791 C260.557912,16.3463161 260.693939,16.2095366 260.94999,16.2095366 L261.398079,16.2095366 C261.63813,16.2095366 261.795493,16.3230344 261.870175,16.5500335 L264.750751,23.5957017 L265.326866,25.1323035 L265.358872,25.1323035 C265.556246,24.5386136 265.742948,24.0264181 265.918984,23.5957017 L268.79956,16.5500335 C268.890246,16.3230344 269.050276,16.2095366 269.279657,16.2095366 L269.719744,16.2095366 C269.975797,16.2095366 270.111823,16.3463161 270.127827,16.6198791 L271,28.319006 L271,28.3713902 C271,28.6449531 270.869309,28.7817327 270.607922,28.7817327 L270.279857,28.7817327 C270.01847,28.7817327 269.879777,28.6449531 269.863773,28.3713902 L269.263653,19.9811954 L269.207641,18.2350571 L269.175636,18.2350571 C268.962258,18.9684389 268.767556,19.5504792 268.591519,19.9811954 L265.999,26.1014104 C265.924318,26.3284095 265.772289,26.4419073 265.542909,26.4419073 L265.15083,26.4419073 C264.905447,26.4419073 264.745417,26.3284095 264.670735,26.1014104 L262.10222,19.9811954 C262.027539,19.7949398 261.939522,19.553393 261.838168,19.256548 C261.736814,18.959703 261.654132,18.7094257 261.590118,18.5057085 L261.494099,18.2001343 L261.462092,18.2001343 C261.462092,18.9335161 261.44609,19.5271972 261.414083,19.9811954 L260.805962,28.3713902 C260.789958,28.6449531 260.653933,28.7817327 260.397881,28.7817327 L260.069814,28.7817327 C259.808427,28.7817327 259.677736,28.6449531 259.677736,28.3713902 L259.677736,28.319006 Z" id=".COM" fill="#2C357D"/>
            </g>
        </g>
    </g>
</svg>